<?xml version="1.0" encoding="UTF-8" standalone="no"?>
<!DOCTYPE svg PUBLIC "-//W3C//DTD SVG 1.1//EN" "http://www.w3.org/Graphics/SVG/1.1/DTD/svg11.dtd">
<svg width="100%" height="100%" viewBox="0 0 1488 1557" version="1.1" xmlns="http://www.w3.org/2000/svg" xmlns:xlink="http://www.w3.org/1999/xlink" xml:space="preserve" xmlns:serif="http://www.serif.com/" style="fill-rule:evenodd;clip-rule:evenodd;stroke-linejoin:round;stroke-miterlimit:2;">
    <g transform="matrix(1,0,0,1,-245.999,-246.003)">
        <path d="M1660.14,1090.52C1722.77,1041.19 1787.62,884.291 1595.75,838.998C1457.83,806.752 1365.32,904.936 1299.63,760.488C1239.51,628.148 1424.98,388.002 1223.03,274.612C1200.94,262.22 1179.39,255.851 1160.2,256.006C1114.74,256.367 1082.46,293.338 1087.47,373.647C1100.99,602.527 962.69,635.255 859.894,849.316C761.685,906.605 674.293,933.765 575.748,992.448L255.999,991.769L255.999,1663.92L573.245,1663.92L674.646,1693.46C829.999,1774.91 1021.77,1792.01 1155.18,1792.01C1235.48,1792.01 1397.47,1784.41 1450.24,1742.19C1510.13,1694.28 1527.44,1617.56 1532.66,1585.29C1636.89,1543.55 1664.75,1456.26 1626.6,1361.87C1671.65,1337.07 1699.64,1303.88 1709.84,1263.33C1730.7,1180.66 1675.68,1117.45 1660.14,1090.52L1660.14,1090.52Z" style="fill:none;stroke:rgb(2,101,0);stroke-width:20px;"/>
    </g>
</svg>
