<svg width="100%" height="100%" viewBox="0 0 1171 394" version="1.1" style="fill-rule:evenodd;clip-rule:evenodd;stroke-linejoin:round;stroke-miterlimit:2;">
    <g transform="matrix(0.659309,0,0,0.659309,-148.095,-1669.22)">
        <g transform="matrix(1.57869,0,0,1.57869,-1107.97,-1704.38)">
            <g transform="matrix(1,0,0,1,-102.471,1570.67)">
                <g>
                    <g transform="matrix(1,0,0,1,1401.2,1482.98)">
                        <path d="M0,-274.216C0,-241.666 12.659,-216.019 37.976,-197.278C57.046,-183.469 84.83,-172.618 121.326,-164.727C159.138,-156.836 178.043,-139.903 178.043,-113.928C178.043,-104.722 173.605,-96.748 164.727,-90.008C155.85,-83.268 146.643,-79.898 137.108,-79.898C126.258,-79.898 114.997,-87.213 103.324,-101.845C91.652,-116.476 79.918,-121.98 68.554,-123.792C41.429,-128.116 17.783,-124.377 7.992,-97.985C1.703,-81.03 15.925,-51.411 28.911,-37.691C43.035,-22.767 53.101,-14.467 75.459,-6.905C94.858,-0.329 114.092,2.959 133.163,2.959C227.856,2.959 275.203,-33.702 275.203,-107.023C275.203,-142.862 266.49,-170.152 249.063,-188.894C232.952,-205.991 206.813,-218.321 170.645,-225.883C147.958,-230.815 134.478,-234.268 130.203,-236.24C117.052,-242.816 110.476,-254.324 110.476,-270.764L110.476,-272.244C110.476,-284.738 112.613,-293.78 116.887,-299.369C121.162,-304.959 129.381,-307.754 141.547,-307.754C162.59,-307.754 170.934,-282.691 181.003,-273.723C188.807,-266.772 192.182,-263.366 210.594,-263.366C221.773,-263.366 232.459,-265.668 242.652,-270.271C255.475,-275.86 261.887,-283.587 261.887,-293.451C261.887,-297.397 259.421,-304.794 254.489,-315.645C238.049,-351.812 203.69,-369.896 151.411,-369.896C50.47,-369.896 0,-338.003 0,-274.216Z" style="fill:url(#_Linear1);fill-rule:nonzero;"/>
                    </g>
                    <g transform="matrix(1,0,0,1,1401.25,1482.21)">
                        <path d="M-0.411,-276.581C-0.411,-276.581 67.202,-370.312 149.145,-306.38C163.81,-294.938 170.657,-282.353 180.725,-273.385C188.529,-266.434 192.512,-262.705 210.925,-262.705C222.104,-262.705 232.884,-264.942 243.077,-269.545C255.9,-275.135 261.887,-283.587 261.887,-293.451C261.887,-297.397 259.421,-304.794 254.489,-315.645C238.049,-351.812 202.867,-368.871 150.592,-369.5C-10.411,-371.436 -0.411,-276.581 -0.411,-276.581Z" style="fill:url(#_Linear2);fill-rule:nonzero;"/>
                    </g>
                    <g transform="matrix(1,0,0,1,1400.96,1483.15)">
                        <path d="M275.622,-110.568C275.106,-152.446 264.381,-166.284 264.381,-166.284C264.381,-166.284 258.462,-30.987 137.108,-79.898C127.045,-83.954 114.997,-87.213 103.324,-101.845C91.652,-116.476 79.918,-121.98 68.554,-123.792C41.429,-128.116 17.783,-124.377 7.992,-97.985C1.703,-81.03 15.925,-51.411 28.911,-37.691C43.035,-22.767 53.101,-14.467 75.459,-6.905C94.858,-0.329 114.092,2.959 133.163,2.959C227.856,2.959 276.569,-33.687 275.622,-110.568Z" style="fill:url(#_Linear3);fill-rule:nonzero;"/>
                    </g>
                </g>
            </g>
            <g transform="matrix(1,0,0,1,983.445,170.57)">
                <g transform="matrix(1,0,0,1,-359.842,930.05)">
                    <path d="M1022.57,1705.58C1061.37,1705.58 1094.41,1716.92 1121.7,1739.61C1150.31,1763.61 1164.61,1794.68 1164.61,1832.82C1164.61,1870.96 1150.14,1902.03 1121.21,1926.03C1094.25,1948.06 1061.2,1959.08 1022.08,1959.08C983.28,1959.08 949.414,1945.27 920.48,1917.65C891.546,1890.03 877.079,1856.99 877.079,1818.52C877.079,1783.34 893.026,1755.06 924.919,1733.69C952.867,1714.95 985.417,1705.58 1022.57,1705.58ZM1021.59,1897.43C1039.01,1897.43 1054.3,1890.77 1067.45,1877.45C1080.6,1864.14 1087.18,1848.77 1087.18,1831.34C1087.18,1814.57 1082,1801.42 1071.64,1791.88C1061.29,1782.35 1047.56,1777.58 1030.46,1777.58C1018.45,1777.58 1007.85,1779.47 998.673,1783.26C993.536,1785.38 988.843,1788.09 984.595,1791.39C971.772,1801.26 965.361,1815.39 965.361,1833.81C965.361,1850.57 970.622,1865.37 981.143,1878.19C991.665,1891.02 1005.14,1897.43 1021.59,1897.43Z" style="fill:url(#_Radial4);fill-rule:nonzero;"/>
                </g>
                <path d="M572.831,2667.18L570.502,2668.67" style="fill:none;"/>
                <g transform="matrix(-0.710088,0.0210852,-0.0210852,-0.710088,754.626,2625.25)">
                    <path d="M-16.033,-70.17C-16.033,-70.17 -50.395,-124.141 -42.181,-174.899C-37.144,-206.031 -14.628,-246.372 8.52,-266.106C141.557,-379.524 291.116,-295.43 291.116,-295.43C291.116,-295.43 241.918,-360.498 149.474,-367.304C66.425,-373.418 4.874,-337.677 -27.582,-299.535C-68.384,-251.584 -70.588,-180.786 -57.65,-138.122C-44.425,-94.513 -16.033,-70.17 -16.033,-70.17Z" style="fill:url(#_Linear5);fill-rule:nonzero;"/>
                </g>
                <g transform="matrix(0.697452,0.135017,-0.135017,0.697452,545.412,2877.04)">
                    <path d="M-37.932,-90.767C-37.932,-90.767 -70.689,-190.795 40.149,-290.472C126.885,-368.474 205.498,-360.755 205.498,-360.755C205.498,-360.755 93.703,-401.994 -16.872,-312.004C-76.387,-263.569 -81.825,-207.086 -71.927,-163.617C-61.524,-117.932 -37.932,-90.767 -37.932,-90.767Z" style="fill:url(#_Linear6);fill-rule:nonzero;"/>
                </g>
            </g>
            <g transform="matrix(1,0,0,1,-280.923,176.468)">
                <path d="M2039,2650.7C2022.56,2666.48 2011.87,2682.59 2006.94,2699.03C2003.98,2709.88 2002.17,2729.12 2001.52,2756.73C2000.86,2794.87 2012.45,2825.7 2036.29,2849.21C2060.12,2872.72 2090.95,2884.47 2128.76,2884.47C2147.17,2884.47 2165.91,2881.68 2184.98,2876.09C2207.01,2869.84 2223.45,2861.29 2234.3,2850.44C2234.96,2849.45 2235.29,2848.47 2235.29,2847.48C2235.29,2827.1 2230.69,2809.34 2221.48,2794.22C2220.82,2793.23 2219.84,2792.57 2218.52,2792.24C2217.53,2792.24 2216.55,2792.57 2215.56,2793.23C2194.19,2808.68 2170.68,2816.41 2145.03,2816.41C2127.61,2816.41 2114.46,2812.63 2105.58,2805.07C2099.99,2800.14 2094.24,2790.6 2088.32,2776.46C2091.93,2776.46 2099.33,2776.79 2110.51,2777.45C2132.87,2778.76 2149.97,2779.42 2161.8,2779.42C2218.68,2779.42 2247.78,2769.23 2249.1,2748.84C2251.07,2722.54 2243.84,2697.06 2227.4,2672.4C2208,2643.13 2180.71,2625.38 2145.53,2619.13C2098.18,2617.49 2062.67,2628.01 2039,2650.7ZM2118.38,2673.42C2128.97,2672.56 2162,2669.39 2174.22,2701.52C2176.4,2707.25 2177.93,2710.07 2178.79,2721.41C2179.2,2726.88 2170.58,2726.9 2165.79,2727.58C2141.51,2731.05 2129.44,2732.89 2105.71,2735.79C2095.89,2736.99 2075.62,2734.83 2075.04,2719.97C2074.4,2703.62 2092.1,2675.55 2118.38,2673.42Z" style="fill:url(#_Linear7);fill-rule:nonzero;"/>
                <g transform="matrix(0.697452,0.135017,-0.135017,0.697452,1983.9,2843.91)">
                    <path d="M112.787,12.615C112.787,12.615 34.974,-85.407 40.443,-167.939C42.058,-192.311 43.075,-209.532 49.955,-230.709C59.688,-260.671 82.33,-286.87 103.666,-300.993C183.982,-354.16 248.261,-334.582 248.261,-334.582C248.261,-334.582 214.407,-354.987 165.487,-353.918C127.259,-353.083 77.503,-338.26 39.458,-299.51C-10.542,-248.584 -8.566,-205.05 -4.414,-160.713C-0.539,-119.331 9.839,-92.825 20.659,-67.685C44.217,-12.953 112.787,12.615 112.787,12.615Z" style="fill:url(#_Linear8);fill-rule:nonzero;"/>
                </g>
                <g transform="matrix(-0.710088,0.0210852,-0.0210852,-0.710088,2205.32,2743.1)">
                    <path d="M-18.247,-70.096C-18.247,-70.096 4.968,-130.822 68.527,-152.93C102.222,-164.65 129.27,-168.584 151.96,-170.345C191.187,-173.388 205.527,-161.961 223.746,-159.08C223.746,-159.08 184.651,-193.015 119.457,-195.223C60.776,-197.21 -33.812,-175.716 -36.644,-152.161C-43.026,-99.072 -18.247,-70.096 -18.247,-70.096Z" style="fill:url(#_Linear9);fill-rule:nonzero;"/>
                </g>
                <g transform="matrix(-0.710088,0.0210852,-0.0210852,-0.710088,2219.03,2634.59)">
                    <path d="M23.234,-14.006C23.234,-14.006 -23.002,-136.377 40.556,-158.485C74.252,-170.205 163.141,-179.188 189.299,-194.045C189.299,-194.045 171.074,-196.225 108.99,-200.406C38.545,-205.151 -32.456,-202.003 -37.302,-162.453C-39.37,-145.58 -39.167,-131.28 -35.333,-116.521C-31.223,-100.694 -27.946,-83.61 -20.534,-69.865C-2.503,-36.429 23.234,-14.006 23.234,-14.006Z" style="fill:url(#_Linear10);fill-rule:nonzero;"/>
                </g>
            </g>
        </g>
        <g transform="matrix(1.5002,0,0,1.5002,-608.282,-1483.34)">
            <g transform="matrix(0.703685,0,0,0.703685,-430.474,2004.37)">
                <g transform="matrix(1,0,0,1,1401.2,1482.98)">
                    <path d="M0,-274.216C0,-241.666 12.659,-216.019 37.976,-197.278C57.046,-183.469 84.83,-172.618 121.326,-164.727C159.138,-156.836 178.043,-139.903 178.043,-113.928C178.043,-104.722 173.605,-96.748 164.727,-90.008C155.85,-83.268 146.643,-79.898 137.108,-79.898C126.258,-79.898 114.997,-87.213 103.324,-101.845C91.652,-116.476 79.918,-121.98 68.554,-123.792C41.429,-128.116 17.783,-124.377 7.992,-97.985C1.703,-81.03 15.925,-51.411 28.911,-37.691C43.035,-22.767 53.101,-14.467 75.459,-6.905C94.858,-0.329 114.092,2.959 133.163,2.959C227.856,2.959 275.203,-33.702 275.203,-107.023C275.203,-142.862 266.49,-170.152 249.063,-188.894C232.952,-205.991 206.813,-218.321 170.645,-225.883C147.958,-230.815 134.478,-234.268 130.203,-236.24C117.052,-242.816 110.476,-254.324 110.476,-270.764L110.476,-272.244C110.476,-284.738 112.613,-293.78 116.887,-299.369C121.162,-304.959 129.381,-307.754 141.547,-307.754C162.59,-307.754 170.934,-282.691 181.003,-273.723C188.807,-266.772 192.182,-263.366 210.594,-263.366C221.773,-263.366 232.459,-265.668 242.652,-270.271C255.475,-275.86 261.887,-283.587 261.887,-293.451C261.887,-297.397 259.421,-304.794 254.489,-315.645C238.049,-351.812 203.69,-369.896 151.411,-369.896C50.47,-369.896 0,-338.003 0,-274.216Z" style="fill:url(#_Linear11);fill-rule:nonzero;"/>
                </g>
                <g transform="matrix(1,0,0,1,1401.25,1482.21)">
                    <path d="M-0.411,-276.581C-0.411,-276.581 67.202,-370.312 149.145,-306.38C163.81,-294.938 170.657,-282.353 180.725,-273.385C188.529,-266.434 192.512,-262.705 210.925,-262.705C222.104,-262.705 232.884,-264.942 243.077,-269.545C255.9,-275.135 261.887,-283.587 261.887,-293.451C261.887,-297.397 259.421,-304.794 254.489,-315.645C238.049,-351.812 202.867,-368.871 150.592,-369.5C-10.411,-371.436 -0.411,-276.581 -0.411,-276.581Z" style="fill:url(#_Linear12);fill-rule:nonzero;"/>
                </g>
                <g transform="matrix(1,0,0,1,1400.96,1483.15)">
                    <path d="M275.622,-110.568C275.106,-152.446 264.381,-166.284 264.381,-166.284C264.381,-166.284 258.462,-30.987 137.108,-79.898C127.045,-83.954 114.997,-87.213 103.324,-101.845C91.652,-116.476 79.918,-121.98 68.554,-123.792C41.429,-128.116 17.783,-124.377 7.992,-97.985C1.703,-81.03 15.925,-51.411 28.911,-37.691C43.035,-22.767 53.101,-14.467 75.459,-6.905C94.858,-0.329 114.092,2.959 133.163,2.959C227.856,2.959 276.569,-33.687 275.622,-110.568Z" style="fill:url(#_Linear13);fill-rule:nonzero;"/>
                </g>
            </g>
            <g transform="matrix(0.730458,0,0,0.730458,307.224,948.014)">
                <g transform="matrix(1,0,0,1,-359.842,930.05)">
                    <path d="M1022.57,1705.58C1061.37,1705.58 1094.41,1716.92 1121.7,1739.61C1150.31,1763.61 1164.61,1794.68 1164.61,1832.82C1164.61,1870.96 1150.14,1902.03 1121.21,1926.03C1094.25,1948.06 1061.2,1959.08 1022.08,1959.08C983.28,1959.08 949.414,1945.27 920.48,1917.65C891.546,1890.03 877.079,1856.99 877.079,1818.52C877.079,1783.34 893.026,1755.06 924.919,1733.69C952.867,1714.95 985.417,1705.58 1022.57,1705.58ZM1021.59,1897.43C1039.01,1897.43 1054.3,1890.77 1067.45,1877.45C1080.6,1864.14 1087.18,1848.77 1087.18,1831.34C1087.18,1814.57 1082,1801.42 1071.64,1791.88C1061.29,1782.35 1047.56,1777.58 1030.46,1777.58C1018.45,1777.58 1007.85,1779.47 998.673,1783.26C993.536,1785.38 988.843,1788.09 984.595,1791.39C971.772,1801.26 965.361,1815.39 965.361,1833.81C965.361,1850.57 970.622,1865.37 981.143,1878.19C991.665,1891.02 1005.14,1897.43 1021.59,1897.43Z" style="fill:url(#_Radial14);fill-rule:nonzero;"/>
                </g>
                <path d="M572.831,2667.18L570.502,2668.67" style="fill:none;"/>
                <g transform="matrix(-0.710088,0.0210852,-0.0210852,-0.710088,754.626,2625.25)">
                    <path d="M-16.033,-70.17C-16.033,-70.17 -50.395,-124.141 -42.181,-174.899C-37.144,-206.031 -14.628,-246.372 8.52,-266.106C141.557,-379.524 291.116,-295.43 291.116,-295.43C291.116,-295.43 241.918,-360.498 149.474,-367.304C66.425,-373.418 4.874,-337.677 -27.582,-299.535C-68.384,-251.584 -70.588,-180.786 -57.65,-138.122C-44.425,-94.513 -16.033,-70.17 -16.033,-70.17Z" style="fill:url(#_Linear15);fill-rule:nonzero;"/>
                </g>
                <g transform="matrix(0.697452,0.135017,-0.135017,0.697452,545.412,2877.04)">
                    <path d="M-37.932,-90.767C-37.932,-90.767 -70.689,-190.795 40.149,-290.472C126.885,-368.474 205.498,-360.755 205.498,-360.755C205.498,-360.755 93.703,-401.994 -16.872,-312.004C-76.387,-263.569 -81.825,-207.086 -71.927,-163.617C-61.524,-117.932 -37.932,-90.767 -37.932,-90.767Z" style="fill:url(#_Linear16);fill-rule:nonzero;"/>
                </g>
            </g>
            <g transform="matrix(0.730458,0,0,0.730458,220.954,949.032)">
                <g transform="matrix(1,0,0,1,-359.842,930.05)">
                    <path d="M1201.6,1604.96L1202.09,1606.94L1203.57,1608.91C1204.23,1616.8 1208.01,1649.84 1214.92,1708.04C1218.86,1740.92 1220.84,1773.97 1220.84,1807.17L1220.84,1809.64C1220.84,1812.27 1219.85,1825.91 1217.88,1850.57C1216.56,1867.01 1215.9,1880.66 1215.9,1891.51C1215.9,1913.54 1217.88,1932.44 1221.82,1948.23L1223.8,1950.69C1236.29,1956.61 1248.62,1959.57 1260.79,1959.57C1279.53,1959.57 1288.9,1956.61 1288.9,1950.69C1288.9,1940.5 1288.57,1930.8 1287.91,1921.59L1285.94,1892.99C1283.96,1841.7 1282.98,1800.27 1282.98,1768.7C1282.98,1742.4 1283.47,1721.03 1284.46,1704.59C1284.13,1700.64 1284.79,1690.45 1286.43,1674.01C1288.4,1654.61 1289.39,1643.1 1289.39,1639.49C1289.39,1616.14 1284.13,1602.66 1273.61,1599.05C1259.14,1594.11 1244.84,1591.65 1230.7,1591.65C1211.3,1591.65 1201.6,1596.09 1201.6,1604.96Z" style="fill:url(#_Linear17);fill-rule:nonzero;"/>
                </g>
                <g transform="matrix(0.697452,0.135017,-0.135017,0.697452,727.686,2757.4)">
                    <path d="M171.775,-95.156C171.775,-95.156 131.539,-261.385 140.591,-308.198C146.212,-337.269 174.099,-355.951 195.3,-349.82C218.245,-343.184 227.681,-320.369 227.681,-320.369C224.476,-329.196 219.337,-351.84 207.901,-359.746C201.476,-364.187 189.576,-366.801 175.122,-366.87C163.027,-366.928 84.411,-365.32 99.574,-333.954C108.551,-315.383 119.144,-275.282 132.254,-236.327C153.372,-173.574 171.775,-95.156 171.775,-95.156Z" style="fill:url(#_Linear18);fill-rule:nonzero;"/>
                </g>
                <g transform="matrix(-0.696007,-0.142277,0.142277,-0.696007,1058.39,2657.28)">
                    <path d="M173.745,-103.823C173.745,-103.823 163.262,-244.696 164.546,-292.359C165.236,-317.994 168.659,-344.864 189.861,-338.733C212.805,-332.097 234.272,-274.255 234.272,-274.255C234.274,-285.991 217.101,-355.015 205.664,-362.921C199.24,-367.362 189.552,-366.05 175.122,-366.87C158.107,-367.836 114.724,-359.643 115.886,-347.175C118.1,-323.427 131.765,-278.632 143.569,-236.544C162.272,-169.859 173.745,-103.823 173.745,-103.823Z" style="fill:url(#_Linear19);fill-rule:nonzero;"/>
                </g>
            </g>
            <g transform="matrix(0.730458,0,0,0.730458,489.475,953.201)">
                <g transform="matrix(1,0,0,1,-359.842,930.05)">
                    <path d="M1022.57,1705.58C1061.37,1705.58 1094.41,1716.92 1121.7,1739.61C1150.31,1763.61 1164.61,1794.68 1164.61,1832.82C1164.61,1870.96 1150.14,1902.03 1121.21,1926.03C1094.25,1948.06 1061.2,1959.08 1022.08,1959.08C983.28,1959.08 949.414,1945.27 920.48,1917.65C891.546,1890.03 877.079,1856.99 877.079,1818.52C877.079,1783.34 893.026,1755.06 924.919,1733.69C952.867,1714.95 985.417,1705.58 1022.57,1705.58ZM1021.59,1897.43C1039.01,1897.43 1054.3,1890.77 1067.45,1877.45C1080.6,1864.14 1087.18,1848.77 1087.18,1831.34C1087.18,1814.57 1082,1801.42 1071.64,1791.88C1061.29,1782.35 1047.56,1777.58 1030.46,1777.58C1018.45,1777.58 1007.85,1779.47 998.673,1783.26C993.536,1785.38 988.843,1788.09 984.595,1791.39C971.772,1801.26 965.361,1815.39 965.361,1833.81C965.361,1850.57 970.622,1865.37 981.143,1878.19C991.665,1891.02 1005.14,1897.43 1021.59,1897.43Z" style="fill:url(#_Radial20);fill-rule:nonzero;"/>
                </g>
                <path d="M572.831,2667.18L570.502,2668.67" style="fill:none;"/>
                <g transform="matrix(-0.710088,0.0210852,-0.0210852,-0.710088,754.626,2625.25)">
                    <path d="M-16.033,-70.17C-16.033,-70.17 -50.395,-124.141 -42.181,-174.899C-37.144,-206.031 -14.628,-246.372 8.52,-266.106C141.557,-379.524 291.116,-295.43 291.116,-295.43C291.116,-295.43 241.918,-360.498 149.474,-367.304C66.425,-373.418 4.874,-337.677 -27.582,-299.535C-68.384,-251.584 -70.588,-180.786 -57.65,-138.122C-44.425,-94.513 -16.033,-70.17 -16.033,-70.17Z" style="fill:url(#_Linear21);fill-rule:nonzero;"/>
                </g>
                <g transform="matrix(0.697452,0.135017,-0.135017,0.697452,545.412,2877.04)">
                    <path d="M-37.932,-90.767C-37.932,-90.767 -70.689,-190.795 40.149,-290.472C126.885,-368.474 205.498,-360.755 205.498,-360.755C205.498,-360.755 93.703,-401.994 -16.872,-312.004C-76.387,-263.569 -81.825,-207.086 -71.927,-163.617C-61.524,-117.932 -37.932,-90.767 -37.932,-90.767Z" style="fill:url(#_Linear22);fill-rule:nonzero;"/>
                </g>
            </g>
        </g>
    </g>
    <defs>
        <linearGradient id="_Linear1" x1="0" y1="0" x2="1" y2="0" gradientUnits="userSpaceOnUse" gradientTransform="matrix(252.717,137.375,-137.375,252.717,13.4303,-224.389)"><stop offset="0" style="stop-color:rgb(43,255,90);stop-opacity:1"/><stop offset="0.46" style="stop-color:rgb(10,166,44);stop-opacity:1"/><stop offset="1" style="stop-color:rgb(0,140,31);stop-opacity:1"/></linearGradient>
        <linearGradient id="_Linear2" x1="0" y1="0" x2="1" y2="0" gradientUnits="userSpaceOnUse" gradientTransform="matrix(-35.7508,64.9644,-64.9644,-35.7508,225.028,-351.597)"><stop offset="0" style="stop-color:rgb(43,255,90);stop-opacity:1"/><stop offset="1" style="stop-color:rgb(0,180,40);stop-opacity:1"/></linearGradient>
        <linearGradient id="_Linear3" x1="0" y1="0" x2="1" y2="0" gradientUnits="userSpaceOnUse" gradientTransform="matrix(-38.1745,-53.5632,53.5632,-38.1745,155.793,-8.32016)"><stop offset="0" style="stop-color:rgb(43,255,90);stop-opacity:1"/><stop offset="1" style="stop-color:rgb(0,153,34);stop-opacity:1"/></linearGradient>
        <radialGradient id="_Radial4" cx="0" cy="0" r="1" gradientUnits="userSpaceOnUse" gradientTransform="matrix(227.332,162.341,-162.341,227.332,911.075,1749.49)"><stop offset="0" style="stop-color:rgb(42,252,88);stop-opacity:1"/><stop offset="0.43" style="stop-color:rgb(29,194,65);stop-opacity:1"/><stop offset="1" style="stop-color:rgb(0,63,14);stop-opacity:1"/></radialGradient>
        <linearGradient id="_Linear5" x1="0" y1="0" x2="1" y2="0" gradientUnits="userSpaceOnUse" gradientTransform="matrix(68.4116,72.6708,-72.6708,68.4116,47.7163,-364.014)"><stop offset="0" style="stop-color:rgb(43,255,90);stop-opacity:1"/><stop offset="1" style="stop-color:rgb(0,180,40);stop-opacity:1"/></linearGradient>
        <linearGradient id="_Linear6" x1="0" y1="0" x2="1" y2="0" gradientUnits="userSpaceOnUse" gradientTransform="matrix(109.47,12.4762,-12.4762,109.47,-35.5139,-303.209)"><stop offset="0" style="stop-color:rgb(43,255,90);stop-opacity:1"/><stop offset="1" style="stop-color:rgb(0,180,40);stop-opacity:1"/></linearGradient>
        <linearGradient id="_Linear7" x1="0" y1="0" x2="1" y2="0" gradientUnits="userSpaceOnUse" gradientTransform="matrix(130.976,69.5536,-69.5536,130.976,2026.1,2712.3)"><stop offset="0" style="stop-color:rgb(18,255,0);stop-opacity:1"/><stop offset="1" style="stop-color:rgb(11,153,0);stop-opacity:1"/></linearGradient>
        <linearGradient id="_Linear8" x1="0" y1="0" x2="1" y2="0" gradientUnits="userSpaceOnUse" gradientTransform="matrix(67.672,16.435,-16.435,67.672,8.42078,-298.414)"><stop offset="0" style="stop-color:rgb(43,255,90);stop-opacity:1"/><stop offset="1" style="stop-color:rgb(0,180,40);stop-opacity:1"/></linearGradient>
        <linearGradient id="_Linear9" x1="0" y1="0" x2="1" y2="0" gradientUnits="userSpaceOnUse" gradientTransform="matrix(54.1756,78.5607,-78.5607,54.1756,29.8097,-234.763)"><stop offset="0" style="stop-color:rgb(43,255,90);stop-opacity:1"/><stop offset="1" style="stop-color:rgb(0,180,40);stop-opacity:1"/></linearGradient>
        <linearGradient id="_Linear10" x1="0" y1="0" x2="1" y2="0" gradientUnits="userSpaceOnUse" gradientTransform="matrix(54.1756,78.5607,-78.5607,54.1756,29.8097,-234.763)"><stop offset="0" style="stop-color:rgb(43,255,90);stop-opacity:1"/><stop offset="1" style="stop-color:rgb(0,180,40);stop-opacity:1"/></linearGradient>
        <linearGradient id="_Linear11" x1="0" y1="0" x2="1" y2="0" gradientUnits="userSpaceOnUse" gradientTransform="matrix(252.717,137.375,-137.375,252.717,13.4303,-224.389)"><stop offset="0" style="stop-color:rgb(43,255,90);stop-opacity:1"/><stop offset="0.46" style="stop-color:rgb(10,166,44);stop-opacity:1"/><stop offset="1" style="stop-color:rgb(0,140,31);stop-opacity:1"/></linearGradient>
        <linearGradient id="_Linear12" x1="0" y1="0" x2="1" y2="0" gradientUnits="userSpaceOnUse" gradientTransform="matrix(-35.7508,64.9644,-64.9644,-35.7508,225.028,-351.597)"><stop offset="0" style="stop-color:rgb(43,255,90);stop-opacity:1"/><stop offset="1" style="stop-color:rgb(0,180,40);stop-opacity:1"/></linearGradient>
        <linearGradient id="_Linear13" x1="0" y1="0" x2="1" y2="0" gradientUnits="userSpaceOnUse" gradientTransform="matrix(-38.1745,-53.5632,53.5632,-38.1745,155.793,-8.32016)"><stop offset="0" style="stop-color:rgb(43,255,90);stop-opacity:1"/><stop offset="1" style="stop-color:rgb(0,153,34);stop-opacity:1"/></linearGradient>
        <radialGradient id="_Radial14" cx="0" cy="0" r="1" gradientUnits="userSpaceOnUse" gradientTransform="matrix(227.332,162.341,-162.341,227.332,911.075,1749.49)"><stop offset="0" style="stop-color:rgb(42,252,88);stop-opacity:1"/><stop offset="0.43" style="stop-color:rgb(29,194,65);stop-opacity:1"/><stop offset="1" style="stop-color:rgb(0,63,14);stop-opacity:1"/></radialGradient>
        <linearGradient id="_Linear15" x1="0" y1="0" x2="1" y2="0" gradientUnits="userSpaceOnUse" gradientTransform="matrix(68.4116,72.6708,-72.6708,68.4116,47.7163,-364.014)"><stop offset="0" style="stop-color:rgb(43,255,90);stop-opacity:1"/><stop offset="1" style="stop-color:rgb(0,180,40);stop-opacity:1"/></linearGradient>
        <linearGradient id="_Linear16" x1="0" y1="0" x2="1" y2="0" gradientUnits="userSpaceOnUse" gradientTransform="matrix(109.47,12.4762,-12.4762,109.47,-35.5139,-303.209)"><stop offset="0" style="stop-color:rgb(43,255,90);stop-opacity:1"/><stop offset="1" style="stop-color:rgb(0,180,40);stop-opacity:1"/></linearGradient>
        <linearGradient id="_Linear17" x1="0" y1="0" x2="1" y2="0" gradientUnits="userSpaceOnUse" gradientTransform="matrix(107.324,27.0637,-27.0637,107.324,1182.76,1753.39)"><stop offset="0" style="stop-color:rgb(42,252,88);stop-opacity:1"/><stop offset="1" style="stop-color:rgb(1,142,32);stop-opacity:1"/></linearGradient>
        <linearGradient id="_Linear18" x1="0" y1="0" x2="1" y2="0" gradientUnits="userSpaceOnUse" gradientTransform="matrix(41.5287,31.1035,-31.1035,41.5287,105.315,-347.658)"><stop offset="0" style="stop-color:rgb(43,255,90);stop-opacity:1"/><stop offset="1" style="stop-color:rgb(0,180,40);stop-opacity:1"/></linearGradient>
        <linearGradient id="_Linear19" x1="0" y1="0" x2="1" y2="0" gradientUnits="userSpaceOnUse" gradientTransform="matrix(41.5287,31.1035,-31.1035,41.5287,105.315,-347.658)"><stop offset="0" style="stop-color:rgb(43,255,90);stop-opacity:1"/><stop offset="1" style="stop-color:rgb(0,180,40);stop-opacity:1"/></linearGradient>
        <radialGradient id="_Radial20" cx="0" cy="0" r="1" gradientUnits="userSpaceOnUse" gradientTransform="matrix(227.332,162.341,-162.341,227.332,911.075,1749.49)"><stop offset="0" style="stop-color:rgb(42,252,88);stop-opacity:1"/><stop offset="0.43" style="stop-color:rgb(29,194,65);stop-opacity:1"/><stop offset="1" style="stop-color:rgb(0,63,14);stop-opacity:1"/></radialGradient>
        <linearGradient id="_Linear21" x1="0" y1="0" x2="1" y2="0" gradientUnits="userSpaceOnUse" gradientTransform="matrix(68.4116,72.6708,-72.6708,68.4116,47.7163,-364.014)"><stop offset="0" style="stop-color:rgb(43,255,90);stop-opacity:1"/><stop offset="1" style="stop-color:rgb(0,180,40);stop-opacity:1"/></linearGradient>
        <linearGradient id="_Linear22" x1="0" y1="0" x2="1" y2="0" gradientUnits="userSpaceOnUse" gradientTransform="matrix(109.47,12.4762,-12.4762,109.47,-35.5139,-303.209)"><stop offset="0" style="stop-color:rgb(43,255,90);stop-opacity:1"/><stop offset="1" style="stop-color:rgb(0,180,40);stop-opacity:1"/></linearGradient>
    </defs>
</svg>
